<?xml version="1.0" encoding="UTF-8"?>
<svg id="Layer_1" data-name="Layer 1" xmlns="http://www.w3.org/2000/svg" viewBox="0 0 2396.92 2944.78">
  <defs>
    <style>
      .cls-1 {
        fill: #0a1818;
      }

      .cls-2 {
        isolation: isolate;
      }

      .cls-3 {
        fill: #212120;
      }
    </style>
  </defs>
  <g>
    <polygon class="cls-1" points="1627.74 826.21 1627.74 1322.23 1484.85 1404.66 1484.85 1404.89 1484.85 1404.89 1341.71 1487.33 1341.71 1487.33 1198.58 1569.99 1055.44 1652.66 912.31 1735.33 769.17 1818 769.17 991.55 912.31 1074.22 1055.44 1156.89 1055.44 1322.23 1198.58 1239.56 1341.71 1156.89 1198.58 1074.22 1055.44 991.55 1055.44 991.55 769.17 826.45 626.04 743.78 626.04 743.78 626.04 1735.33 482.9 1652.66 482.9 1652.66 339.77 1569.99 339.77 82.67 482.9 165.34 482.9 165.34 482.9 165.34 626.04 248.01 626.04 248.01 769.17 330.44 769.17 330.44 912.31 413.11 1198.58 578.44 1341.71 661.11 1484.85 743.78 1627.74 826.21"/>
    <polygon class="cls-1" points="2057.15 578.44 2057.15 1569.99 1914.01 1652.66 1771.12 1735.33 1770.88 1735.33 1770.88 1735.33 1627.98 1818 1627.74 1818 1484.85 1900.67 1341.71 1983.1 1198.58 2065.77 1055.44 1983.1 912.31 1900.67 1055.44 1818 1198.58 1735.33 1198.58 1735.33 1341.71 1652.66 1484.85 1569.99 1627.74 1487.33 1627.98 1487.33 1770.88 1404.89 1770.88 743.78 1627.98 661.11 1627.74 661.11 1484.85 578.44 1484.85 578.44 1341.71 495.78 1341.71 495.78 1341.71 495.78 1198.58 413.11 1055.44 330.44 912.31 248.01 769.17 165.34 769.17 165.34 1055.44 0 1198.58 82.67 1198.58 82.67 1341.71 165.34 1341.71 165.34 1484.85 248.01 1484.85 248.01 1627.74 330.44 1770.88 413.11 1914.01 495.78 1914.01 495.78 2057.15 578.44"/>
  </g>
  <g class="cls-2">
    <g class="cls-2">
      <path class="cls-3" d="M69.56,2744.32c12.62,0,22.64,1.15,30.07,3.45,7.42,2.3,12.81,6.35,16.15,12.14,3.34,5.79,5.01,13.96,5.01,24.5s-2.04,19.38-6.12,25.17c-4.09,5.79-10.73,9.13-19.93,10.02v.89c11.43,1.04,19.41,5.05,23.94,12.03,4.53,6.98,6.79,16.63,6.79,28.96,0,10.54-1.64,18.71-4.9,24.5-3.27,5.79-8.5,9.84-15.7,12.14-7.2,2.3-16.67,3.45-28.4,3.45-8.76,0-16.3-.04-22.61-.11-6.31-.08-12.14-.26-17.48-.56-5.35-.3-10.91-.67-16.7-1.11l3.12-15.59c3.26.15,9.47.3,18.6.45,9.13.15,19.79.22,31.96.22,8.16,0,14.59-.7,19.27-2.12,4.68-1.41,8.02-4.04,10.02-7.91,2-3.86,3.01-9.43,3.01-16.71,0-8.02-1.04-14.18-3.12-18.49-2.08-4.31-5.57-7.35-10.47-9.13-4.9-1.78-11.58-2.75-20.05-2.9H22.56v-14.92h49.22c7.42-.15,13.33-.93,17.71-2.34,4.38-1.41,7.53-4.01,9.47-7.79,1.93-3.79,2.9-9.09,2.9-15.93s-1.04-12.32-3.12-16.04c-2.08-3.71-5.53-6.24-10.36-7.57-4.83-1.34-11.4-2-19.71-2h-19.6c-5.79,0-10.88.04-15.26.11-4.38.08-8.06.26-11.03.56l-3.12-15.59c5.2-.59,10.13-1,14.81-1.23,4.68-.22,9.8-.37,15.37-.45,5.57-.07,12.14-.11,19.71-.11ZM38.82,2746.1v153.69h-19.15v-153.69h19.15Z"/>
      <path class="cls-3" d="M174.02,2791.32v76.17c-.15,6.83,1.11,11.66,3.79,14.48,2.67,2.82,7.13,4.23,13.36,4.23s12.14-1.45,18.15-4.34,13.25-7.09,21.72-12.58l2.45,13.14c-8.46,6.68-16.67,11.73-24.61,15.15-7.95,3.41-16,5.12-24.17,5.12-19.75,0-29.62-9.95-29.62-29.85v-81.52h18.93ZM247.96,2791.32v108.47h-15.15l-1.78-20.49-2-3.34v-84.64h18.93Z"/>
      <path class="cls-3" d="M297.41,2745.21c3.86,0,5.79,1.93,5.79,5.79v12.7c0,3.86-1.93,5.79-5.79,5.79h-8.91c-3.86,0-5.79-1.93-5.79-5.79v-12.7c0-3.86,1.93-5.79,5.79-5.79h8.91ZM302.31,2791.32v108.47h-18.71v-108.47h18.71Z"/>
      <path class="cls-3" d="M356.87,2743.88v126.07c0,4.75,1.3,8.35,3.9,10.8,2.6,2.45,6.27,3.68,11.03,3.68h10.47l2.23,14.48c-1.34.59-3.23,1.11-5.68,1.56s-4.98.78-7.57,1c-2.6.22-4.79.33-6.57.33-8.02,0-14.44-2.37-19.27-7.13-4.83-4.75-7.24-11.58-7.24-20.49v-130.3h18.71Z"/>
      <path class="cls-3" d="M440.18,2788.64c7.13,0,14.18.93,21.16,2.78,6.98,1.86,13.66,4.72,20.05,8.58l-1.11,11.8c-6.98-2.08-13.14-3.71-18.49-4.9-5.35-1.19-11.06-1.78-17.15-1.78s-11.25,1.08-15.03,3.23c-3.79,2.15-6.57,6.12-8.35,11.92-1.78,5.79-2.67,14.03-2.67,24.72s.85,19.01,2.56,24.95c1.71,5.94,4.42,10.1,8.13,12.47,3.71,2.38,8.46,3.56,14.25,3.56,4.31,0,8.2-.56,11.69-1.67,3.49-1.11,7.2-2.93,11.14-5.46,3.93-2.52,8.58-5.71,13.92-9.58l1.78,13.36c-5.94,5.5-12.7,10.17-20.27,14.03s-15.74,5.79-24.5,5.79c-13.66,0-23.43-4.82-29.29-14.48-5.87-9.65-8.8-23.91-8.8-42.76,0-14.11,1.48-25.28,4.45-33.52,2.97-8.24,7.5-14.14,13.59-17.71,6.09-3.56,13.73-5.35,22.94-5.35ZM496.75,2743.88v155.91h-14.7l-2.23-18.93-2-1.56v-74.39l1.34-3.34c-.6-4.16-.97-8.16-1.11-12.03-.15-3.86-.22-7.94-.22-12.25v-33.41h18.93Z"/>
      <path class="cls-3" d="M546.42,2745.21c3.86,0,5.79,1.93,5.79,5.79v12.7c0,3.86-1.93,5.79-5.79,5.79h-8.91c-3.86,0-5.79-1.93-5.79-5.79v-12.7c0-3.86,1.93-5.79,5.79-5.79h8.91ZM551.32,2791.32v108.47h-18.71v-108.47h18.71Z"/>
      <path class="cls-3" d="M602.99,2791.32l1.56,20.71,1.34,3.34v84.42h-18.93v-108.47h16.04ZM652.88,2788.64c19.6,0,29.4,9.95,29.4,29.85v81.3h-18.93v-75.95c0-7.27-1.19-12.29-3.56-15.03-2.38-2.75-6.39-4.12-12.03-4.12-6.68,0-13.36,1.64-20.05,4.9-6.68,3.27-14.63,7.72-23.83,13.36l-.89-13.59c8.46-6.53,16.85-11.62,25.17-15.26,8.31-3.64,16.56-5.46,24.72-5.46Z"/>
      <path class="cls-3" d="M728.61,2850.56l10.91,1.56c-2.53,2.23-4.23,4.94-5.12,8.13-.89,3.2-.63,6.12.78,8.8,1.41,2.67,4.42,4.38,9.02,5.12l40.54,6.46c10.25,1.49,17.37,4.68,21.38,9.58,4.01,4.9,6.01,11.88,6.01,20.94,0,8.46-1.6,15.15-4.79,20.05-3.19,4.9-8.58,8.39-16.15,10.47-7.57,2.08-17.82,3.12-30.74,3.12-9.8,0-18.04-.56-24.72-1.67-6.68-1.11-12.07-2.97-16.15-5.57-4.09-2.6-7.02-5.98-8.8-10.13-1.78-4.16-2.67-9.36-2.67-15.59,0-4.75.7-8.72,2.12-11.92,1.41-3.19,3.64-6.05,6.68-8.58,3.04-2.52,7.02-4.97,11.92-7.35l13.36-7.35,8.69,3.12-10.91,8.24c-2.97,2.23-5.46,4.42-7.46,6.57-2,2.15-3.49,4.46-4.46,6.91-.97,2.45-1.45,5.38-1.45,8.8,0,5.05.96,8.91,2.9,11.58,1.93,2.67,5.35,4.49,10.25,5.46,4.9.96,11.73,1.45,20.49,1.45s15.55-.52,20.38-1.56c4.82-1.04,8.2-2.9,10.13-5.57,1.93-2.67,2.9-6.46,2.9-11.36,0-3.71-.48-6.54-1.45-8.46-.97-1.93-2.78-3.41-5.46-4.46-2.67-1.04-6.61-1.93-11.8-2.67l-38.98-5.35c-4.6-.59-8.28-2.08-11.03-4.45-2.75-2.37-4.64-5.2-5.68-8.46-1.04-3.26-1.34-6.57-.89-9.91.45-3.34,1.56-6.46,3.34-9.35s4.08-5.08,6.9-6.57ZM759.35,2788.64c11.58,0,20.75,1.19,27.51,3.56,6.75,2.38,11.58,6.09,14.48,11.14,2.9,5.05,4.34,11.66,4.34,19.82s-1.45,14.37-4.34,19.49-7.76,8.91-14.59,11.36c-6.83,2.45-16.04,3.67-27.62,3.67s-20.75-1.22-27.51-3.67c-6.76-2.45-11.58-6.2-14.48-11.25-2.9-5.05-4.34-11.51-4.34-19.38s1.45-14.81,4.34-19.93,7.76-8.87,14.59-11.25c6.83-2.37,16.04-3.56,27.62-3.56ZM759.12,2803.12c-10.84,0-18.38,1.52-22.61,4.57-4.23,3.04-6.35,8.21-6.35,15.48s2.12,12.25,6.35,15.37c4.23,3.12,11.77,4.68,22.61,4.68s18.56-1.56,22.72-4.68c4.16-3.12,6.24-8.24,6.24-15.37s-2.08-12.43-6.24-15.48c-4.16-3.04-11.73-4.57-22.72-4.57ZM818.37,2791.32l-1.11,10.47-27.62,2.23-7.8-12.7h36.53Z"/>
      <path class="cls-3" d="M950.45,2743.88c4.75,0,10.17.11,16.26.33,6.09.22,12.47.86,19.16,1.89l-2.23,14.48c-1.49-.15-3.56-.26-6.24-.33-2.67-.07-5.65-.15-8.91-.22-3.27-.07-6.54-.11-9.8-.11h-8.91c-9.35,0-16.78.63-22.27,1.89-5.5,1.26-9.43,3.75-11.8,7.46-2.38,3.71-3.56,9.43-3.56,17.15,0,6.98.93,12.36,2.78,16.15,1.85,3.79,4.97,6.42,9.35,7.91,4.38,1.49,10.28,2.23,17.71,2.23h87.53l-.22,14.92h-88.2c-8.02,0-14.44.89-19.27,2.67-4.83,1.78-8.28,4.83-10.36,9.13-2.08,4.31-3.12,10.4-3.12,18.26,0,6.98.89,12.47,2.67,16.48s4.79,6.83,9.02,8.46c4.23,1.64,9.98,2.45,17.26,2.45,10.99-.15,20.34-1.86,28.06-5.12,7.72-3.26,14.55-8.31,20.49-15.15l3.12,12.03c-4.75,6.24-9.8,11.21-15.15,14.92-5.35,3.71-11.32,6.35-17.93,7.91-6.61,1.56-14.29,2.34-23.05,2.34-10.69,0-19.34-1.3-25.95-3.9-6.61-2.6-11.44-6.87-14.48-12.81-3.05-5.94-4.57-14.11-4.57-24.5,0-11.73,2.19-21.12,6.57-28.18,4.38-7.05,12.21-11.1,23.5-12.14v-.89c-9.35-.89-15.96-4.34-19.82-10.36-3.86-6.01-5.79-14.51-5.79-25.5,0-8.91,1.11-16.04,3.34-21.38,2.23-5.35,5.71-9.32,10.47-11.92,4.75-2.6,10.76-4.34,18.04-5.23,7.27-.89,16.04-1.34,26.28-1.34ZM1001.46,2784.19v86.42c0,5.2,1.11,8.91,3.34,11.14,2.23,2.23,5.86,3.34,10.91,3.34h16.48l2.23,13.81c-2.23.59-4.83,1.11-7.8,1.56-2.97.45-5.87.78-8.69,1-2.82.22-5.2.33-7.13.33-8.91,0-15.67-2.23-20.27-6.68-4.6-4.45-6.9-10.69-6.9-18.71v-57.24l2-34.97h15.81Z"/>
      <path class="cls-3" d="M1168.5,2743.43c6.53,0,12.14.15,16.82.45,4.68.3,8.98.78,12.92,1.45,3.93.67,7.98,1.52,12.14,2.56l-2,14.92c-4.45-.45-8.58-.81-12.36-1.11-3.79-.3-7.83-.52-12.14-.67-4.31-.15-9.43-.22-15.37-.22-9.95,0-17.82,1.93-23.61,5.79-5.79,3.86-9.91,10.32-12.36,19.38-2.45,9.06-3.68,21.38-3.68,36.97s1.23,27.92,3.68,36.97c2.45,9.06,6.57,15.52,12.36,19.38,5.79,3.86,13.66,5.79,23.61,5.79s17.48-.18,23.94-.56c6.46-.37,12.81-1,19.04-1.89l2,14.7c-6.39,1.78-12.96,3.08-19.71,3.9-6.76.81-15.18,1.22-25.28,1.22-14.7,0-26.47-2.56-35.3-7.68-8.84-5.12-15.22-13.48-19.15-25.06-3.94-11.58-5.9-27.17-5.9-46.77s1.97-35.19,5.9-46.77c3.93-11.58,10.32-19.93,19.15-25.06,8.83-5.12,20.6-7.68,35.3-7.68Z"/>
      <path class="cls-3" d="M1284.77,2788.64c12.47,0,22.46,1.86,29.96,5.57,7.5,3.71,12.88,9.77,16.15,18.15,3.26,8.39,4.9,19.49,4.9,33.3s-1.64,24.91-4.9,33.3c-3.27,8.39-8.65,14.44-16.15,18.15-7.5,3.71-17.48,5.57-29.96,5.57s-22.24-1.86-29.73-5.57c-7.5-3.71-12.92-9.76-16.26-18.15-3.34-8.39-5.01-19.49-5.01-33.3s1.67-24.91,5.01-33.3c3.34-8.39,8.76-14.44,16.26-18.15,7.5-3.71,17.41-5.57,29.73-5.57ZM1284.77,2804.68c-7.87,0-14.07,1.23-18.6,3.68-4.53,2.45-7.76,6.65-9.69,12.58-1.93,5.94-2.9,14.18-2.9,24.72s.96,18.79,2.9,24.72c1.93,5.94,5.16,10.13,9.69,12.58,4.53,2.45,10.73,3.67,18.6,3.67s14.11-1.22,18.71-3.67c4.6-2.45,7.87-6.64,9.8-12.58,1.93-5.94,2.9-14.18,2.9-24.72s-.97-18.78-2.9-24.72c-1.93-5.94-5.2-10.13-9.8-12.58-4.6-2.45-10.84-3.68-18.71-3.68Z"/>
      <path class="cls-3" d="M1381.43,2791.32l1.56,20.71,1.34,3.34v84.42h-18.93v-108.47h16.04ZM1431.32,2788.64c19.6,0,29.4,9.95,29.4,29.85v81.3h-18.93v-75.95c0-7.27-1.19-12.29-3.56-15.03-2.38-2.75-6.39-4.12-12.03-4.12-6.68,0-13.36,1.64-20.05,4.9-6.68,3.27-14.63,7.72-23.83,13.36l-.89-13.59c8.46-6.53,16.85-11.62,25.17-15.26,8.31-3.64,16.55-5.46,24.72-5.46Z"/>
      <path class="cls-3" d="M1530.88,2788.64c4.75,0,9.8.15,15.15.45,5.35.3,10.65.67,15.93,1.11,5.27.45,10.13,1.04,14.59,1.78l-1.56,13.81c-6.83-.3-13.7-.56-20.6-.78-6.9-.22-13.77-.33-20.6-.33-6.68-.15-11.96,0-15.81.45-3.86.45-6.65,1.64-8.35,3.56-1.71,1.93-2.56,5.2-2.56,9.8,0,5.65,1.34,9.36,4.01,11.14,2.67,1.78,6.61,3.27,11.8,4.46l31.63,7.13c8.61,2.08,14.96,5.27,19.04,9.58,4.08,4.31,6.12,11.06,6.12,20.27s-1.67,15.59-5.01,20.05-8.43,7.43-15.26,8.91c-6.83,1.48-15.52,2.23-26.06,2.23-3.86,0-9.62-.15-17.26-.45-7.65-.3-16.08-1.19-25.28-2.67l1.34-13.81c3.56.15,7.35.33,11.36.56,4.01.22,8.2.33,12.58.33h13.47c8.17,0,14.55-.37,19.16-1.11,4.6-.74,7.87-2.19,9.8-4.34,1.93-2.15,2.9-5.38,2.9-9.69,0-5.35-1.56-8.91-4.68-10.69s-7.28-3.26-12.47-4.45l-31.18-7.13c-5.94-1.48-10.69-3.45-14.25-5.9-3.56-2.45-6.16-5.64-7.8-9.58-1.64-3.93-2.45-8.87-2.45-14.81,0-8.46,1.48-14.85,4.45-19.15,2.97-4.31,7.57-7.2,13.81-8.69,6.24-1.48,14.25-2.15,24.06-2Z"/>
      <path class="cls-3" d="M1669.64,2791.32v14.92h-73.06v-13.81l21.38-1.11h51.67ZM1635.12,2759.24v110.7c0,5.2,1.11,8.91,3.34,11.14,2.23,2.23,6.01,3.34,11.36,3.34h16.48l2.23,14.48c-2.38.59-5.12,1.11-8.24,1.56-3.12.45-6.16.78-9.13,1-2.97.22-5.35.33-7.13.33-9.06,0-15.96-2.52-20.71-7.57-4.75-5.05-7.13-12.32-7.13-21.83v-113.15h18.93Z"/>
      <path class="cls-3" d="M1707.51,2791.32l2.45,20.71,1.78,3.34v84.42h-18.93v-108.47h14.7ZM1760.74,2788.64l-2.23,17.82h-6.24c-6.39,0-12.77,1.3-19.16,3.9-6.39,2.6-14.18,6.28-23.39,11.03l-1.56-11.8c8.02-6.53,16.07-11.66,24.17-15.37,8.09-3.71,15.93-5.57,23.5-5.57h4.9Z"/>
      <path class="cls-3" d="M1800.39,2791.32v76.17c-.15,6.83,1.11,11.66,3.79,14.48,2.67,2.82,7.13,4.23,13.36,4.23s12.14-1.45,18.15-4.34,13.25-7.09,21.72-12.58l2.45,13.14c-8.46,6.68-16.67,11.73-24.61,15.15-7.95,3.41-16,5.12-24.17,5.12-19.75,0-29.62-9.95-29.62-29.85v-81.52h18.93ZM1874.33,2791.32v108.47h-15.15l-1.78-20.49-2-3.34v-84.64h18.93Z"/>
      <path class="cls-3" d="M1955.4,2788.64c3.26,0,6.91.15,10.91.45,4.01.3,8.13.82,12.36,1.56,4.23.74,8.13,1.78,11.69,3.12l-2.45,12.25c-4.9-.45-10.06-.78-15.48-1-5.42-.22-10.06-.33-13.92-.33-8.61,0-15.45,1.19-20.49,3.56-5.05,2.38-8.69,6.54-10.91,12.47-2.23,5.94-3.34,14.18-3.34,24.72s1.11,18.82,3.34,24.83c2.23,6.01,5.86,10.21,10.91,12.58,5.05,2.38,11.88,3.56,20.49,3.56,2.23,0,5.12-.07,8.69-.22,3.56-.15,7.38-.37,11.47-.67,4.08-.3,7.98-.74,11.69-1.34l2,12.7c-5.5,1.93-11.47,3.34-17.93,4.23-6.46.89-12.88,1.34-19.27,1.34-12.47,0-22.5-1.86-30.07-5.57-7.57-3.71-13.03-9.72-16.37-18.04-3.34-8.31-5.01-19.45-5.01-33.41s1.71-25.09,5.12-33.41c3.41-8.31,8.91-14.29,16.48-17.93,7.57-3.64,17.6-5.46,30.07-5.46Z"/>
      <path class="cls-3" d="M2079.69,2791.32v14.92h-73.06v-13.81l21.38-1.11h51.67ZM2045.17,2759.24v110.7c0,5.2,1.11,8.91,3.34,11.14,2.23,2.23,6.01,3.34,11.36,3.34h16.48l2.23,14.48c-2.38.59-5.12,1.11-8.24,1.56-3.12.45-6.16.78-9.13,1-2.97.22-5.35.33-7.13.33-9.06,0-15.96-2.52-20.71-7.57-4.75-5.05-7.13-12.32-7.13-21.83v-113.15h18.93Z"/>
      <path class="cls-3" d="M2117.55,2745.21c3.86,0,5.79,1.93,5.79,5.79v12.7c0,3.86-1.93,5.79-5.79,5.79h-8.91c-3.86,0-5.79-1.93-5.79-5.79v-12.7c0-3.86,1.93-5.79,5.79-5.79h8.91ZM2122.45,2791.32v108.47h-18.71v-108.47h18.71Z"/>
      <path class="cls-3" d="M2203.97,2788.64c12.47,0,22.46,1.86,29.96,5.57,7.5,3.71,12.88,9.77,16.15,18.15,3.26,8.39,4.9,19.49,4.9,33.3s-1.64,24.91-4.9,33.3c-3.27,8.39-8.65,14.44-16.15,18.15-7.5,3.71-17.48,5.57-29.96,5.57s-22.24-1.86-29.73-5.57c-7.5-3.71-12.92-9.76-16.26-18.15-3.34-8.39-5.01-19.49-5.01-33.3s1.67-24.91,5.01-33.3c3.34-8.39,8.76-14.44,16.26-18.15,7.5-3.71,17.41-5.57,29.73-5.57ZM2203.97,2804.68c-7.87,0-14.07,1.23-18.6,3.68-4.53,2.45-7.76,6.65-9.69,12.58-1.93,5.94-2.9,14.18-2.9,24.72s.96,18.79,2.9,24.72c1.93,5.94,5.16,10.13,9.69,12.58,4.53,2.45,10.73,3.67,18.6,3.67s14.11-1.22,18.71-3.67c4.6-2.45,7.87-6.64,9.8-12.58,1.93-5.94,2.9-14.18,2.9-24.72s-.97-18.78-2.9-24.72c-1.93-5.94-5.2-10.13-9.8-12.58-4.6-2.45-10.84-3.68-18.71-3.68Z"/>
      <path class="cls-3" d="M2300.64,2791.32l1.56,20.71,1.34,3.34v84.42h-18.93v-108.47h16.04ZM2350.53,2788.64c19.6,0,29.4,9.95,29.4,29.85v81.3h-18.93v-75.95c0-7.27-1.19-12.29-3.56-15.03-2.38-2.75-6.39-4.12-12.03-4.12-6.68,0-13.36,1.64-20.05,4.9-6.68,3.27-14.63,7.72-23.83,13.36l-.89-13.59c8.46-6.53,16.85-11.62,25.17-15.26,8.31-3.64,16.55-5.46,24.72-5.46Z"/>
    </g>
  </g>
  <g>
    <path class="cls-1" d="M2294.64,2353.93h-99.44l-96.84,256.75h66.61l19.84-55.51h115.26l21.02,55.51h75.82l-102.75-256.75h.47ZM2197.33,2516.43c14.41-38.5,28.82-77.24,43.22-115.74,15.83,38.5,31.41,77.24,47.24,115.74h-90.46Z"/>
    <path class="cls-1" d="M1598.81,2353.93h-99.44l-96.84,256.75h66.61l19.84-55.51h115.26l21.02,55.51h75.82l-102.75-256.75h.47ZM1501.26,2516.43c14.41-38.5,28.82-77.24,43.22-115.74,15.83,38.5,31.41,77.24,47.24,115.74h-90.46Z"/>
    <polygon class="cls-1" points="1763.68 2596.27 1763.68 2353.93 1841.62 2353.93 1972 2499.43 1972 2353.93 2036.48 2353.93 2036.48 2610.67 1981.45 2612.33 1828.87 2443.45 1829.34 2610.67 1763.68 2612.33 1763.68 2596.27"/>
    <polygon class="cls-1" points="1008.79 2369.28 1008.79 2610.67 1080.6 2610.67 1080.6 2353.93 1008.79 2353.93 1008.79 2369.28"/>
    <path class="cls-1" d="M870.85,2514.31c107.47-31.65,76.29-165.81-21.97-160.38h-179.98v256.75l74.4,1.42v-97.79l46.77.47,68.97,95.9h74.87l-67.32-95.42,4.02-.94h.24ZM836.13,2462.34h-4.49l-88.34.47v-53.85h89.75c38.03,1.65,36.37,50.78,3.07,53.38Z"/>
    <path class="cls-1" d="M590.73,2415.1c-27.16-42.75-92.59-66.13-135.1-63.06h0c-55.74,1.65-112.43,22.91-136.76,74.64-11.57,22.91-15.59,48.42-11.57,73.46,2.83,20.31,9.68,40.15,21.97,57.16,21.49,31.18,60.94,47,96.13,52.44,46.29,7.32,95.66-.71,136.76-27.4,45.35-31.41,64.95-113.85,28.58-166.99v-.24ZM457.98,2555.64c-44.17,0-80.07-32.59-80.07-72.51s35.9-72.51,80.07-72.51,80.07,32.59,80.07,72.51-35.9,72.51-80.07,72.51Z"/>
    <path class="cls-1" d="M1342.3,2353.93v182.82c0,1.89,0,4.25-.47,7.09,0,1.18-.24,3.31-.71,5.67,0,.47-.94,5.43-1.65,9.21-1.65,7.09-4.96,12.52-6.14,14.64-7.79,13.7-21.49,23.15-22.91,24.09-20.55,14.17-48.18,14.64-71.33,14.88-14.64,0-45.35-.47-82.43-12.28-9.68-3.07-17.48-6.14-22.91-8.5,7.32-18.9,14.64-37.79,21.97-56.45v-.47l3.78,1.65c12.05,5.67,22.44,9.45,30.47,11.81,10.63,3.31,20.31,5.67,30,7.09,12.28,1.89,18.19,1.42,23.38.47,3.78-.71,9.68-1.89,14.17-5.43,10.39-7.79,10.86-23.86,10.86-31.41.24-18.42.94-79.83,0-164.86h73.93Z"/>
    <path class="cls-1" d="M265.01,2413.92c-2.13-4.25-5.2-9.68-9.92-15.83-24.33-32.12-64.01-40.86-85.98-43.46h-5.67l-5.43-.47H0v258.16h142.66c17.01.71,63.54-1.18,99.91-36.61,25.04-24.33,32.6-52.44,34.96-61.65,12.52-48.89-6.85-89.05-12.52-99.91v-.24ZM205.02,2508.17c-1.42,4.49-9.21,29.52-31.18,39.21-2.83,1.42-5.2,1.89-8.74,2.83-12.52,3.54-24.33,4.72-34.96,4.25h-1.65l-13.46-.47h-3.78v-.47h-37.56v-141.25h58.1c8.03.24,28.82,1.18,40.39,5.67,26.45,10.39,43.7,55.27,32.83,89.75v.47Z"/>
  </g>
</svg>