<?xml version="1.0" encoding="UTF-8"?>
<svg id="Layer_1" data-name="Layer 1" xmlns="http://www.w3.org/2000/svg" viewBox="0 0 2752.02 299.41">
  <defs>
    <style>
      .cls-1 {
        fill: #061616;
      }
    </style>
  </defs>
  <path class="cls-1" d="M2633.98,2.7h-114.05l-111.05,294.71h76.53l22.83-63.68h132.42l24.26,63.68h87.1L2633.98,2.7ZM2522.21,189.03c16.59-44.32,33.15-88.63,49.71-132.95,18.09,44.31,36.14,88.63,54.2,132.95h-103.91Z"/>
  <path class="cls-1" d="M1835.03,2.7h-114.05l-111.05,294.71h76.53l22.83-63.68h132.42l24.26,63.68h87.1L1835.03,2.7ZM1723.26,189.03c16.56-44.32,33.15-88.63,49.71-132.95,18.09,44.31,36.14,88.63,54.2,132.95h-103.91Z"/>
  <polygon class="cls-1" points="2024.45 280.65 2024.45 2.7 2113.78 2.7 2263.56 169.48 2263.56 2.7 2337.51 2.7 2337.51 297.41 2274.28 299.08 2099.31 105.23 2099.63 297.41 2024.45 299.08 2024.45 280.65"/>
  <polygon class="cls-1" points="1157.98 20.32 1157.98 297.41 1240.31 297.41 1240.31 2.7 1157.98 2.7 1157.98 20.32"/>
  <path class="cls-1" d="M999.6,186.8c123.42-36.28,87.62-190.3-25.08-184.1h-206.72v294.71l85.45,1.68v-112.29l53.64.42,79.19,110.18h86.01l-77.22-109.49,4.73-1.12ZM959.79,126.98h-5.1l-101.44.58v-61.86h102.95c43.73,1.86,41.64,58.18,3.59,61.28Z"/>
  <path class="cls-1" d="M677.88,72.77C646.57,23.78,571.54-3.16,522.86.3l-.22.03c-63.87,1.87-128.98,26.13-157.05,85.7-13.19,26.26-17.99,55.57-13.22,84.23,3.18,23.42,11.13,46.19,25.29,65.68,24.6,35.86,69.92,53.89,110.37,60.13,53.17,8.36,109.84-.78,157.02-31.5,51.99-36.18,74.44-130.76,32.84-191.79ZM525.51,234.25c-50.8,0-92-37.3-92-83.36s41.2-83.36,92-83.36,92.03,37.33,92.03,83.36-41.23,83.36-92.03,83.36Z"/>
  <path class="cls-1" d="M1540.65,2.71v209.83c-.09,2.28-.27,4.98-.58,8-.14,1.4-.39,3.66-.82,6.43-.08.5-.96,6.26-2.01,10.49-2.03,8.04-5.69,14.44-7.11,16.94-8.93,15.6-24.75,26.64-26.17,27.61-23.7,16.24-55.3,16.7-81.86,17.08-16.7.24-52.13-.66-94.49-14.09-11.12-3.52-20.14-7.09-26.4-9.75,8.41-21.64,16.81-43.29,25.22-64.93.06-.17.14-.36.2-.53l4.28,1.98c13.76,6.45,25.77,10.79,34.85,13.68,12.23,3.9,23.26,6.53,34.45,8.24,14.07,2.15,20.93,1.75,26.9.5,4.34-.9,11.04-2.28,16.4-6.29,11.98-8.95,12.47-27.41,12.58-35.98.28-21.18.97-91.77,0-189.21h84.55Z"/>
  <path class="cls-1" d="M304.07,71.4c-2.52-4.76-5.83-11.01-11.29-18.18C264.72,16.36,219.33,6.37,194.12,3.34l-6.45-.2-6.21-.2-7.66-.24H0v296.39h139.75l23.98.27c19.53.52,72.99-1.75,114.63-42.35,28.73-28.04,37.41-60.24,40.13-70.86,14.32-56.04-7.85-102.26-14.42-114.76ZM235.16,179.6c-1.64,5.19-10.71,33.78-35.73,45.02-3.38,1.51-5.99,2.17-9.95,3.32-14.34,4.12-27.99,5.3-40.13,4.94l-1.92-.06-15.49-.58-4.45-.16c-.05-.11-.08-.22-.13-.33-14.36-.08-28.73-.16-43.1-.25V69.48c12.82.05,25.6.09,38.42.14l9.09.09,5.47.06h.63c3.76-.05,8.19-.03,13.11.17,9.14.38,33.08,1.35,46.43,6.59,30.47,11.95,50.27,63.57,37.74,103.06Z"/>
</svg>